<?xml version="1.0" standalone="no"?>
<!DOCTYPE svg PUBLIC "-//W3C//DTD SVG 20010904//EN"
 "http://www.w3.org/TR/2001/REC-SVG-20010904/DTD/svg10.dtd">
<svg version="1.0" xmlns="http://www.w3.org/2000/svg"
 width="500.000000pt" height="500.000000pt" viewBox="0 0 500.000000 500.000000"
 preserveAspectRatio="xMidYMid meet">

<g transform="translate(0.000000,500.000000) scale(0.100000,-0.100000)"
fill="#000000" stroke="none">
<path d="M2487 3853 c-111 -109 -348 -343 -527 -520 -179 -176 -377 -371 -440
-431 l-115 -110 60 -7 c33 -5 142 -5 243 -1 l182 6 0 -355 c0 -195 -3 -355 -7
-355 -32 0 -281 -34 -378 -50 -413 -72 -822 -207 -1075 -355 -45 -26 -79 -49
-77 -51 2 -2 23 3 47 11 75 27 300 83 455 114 366 74 716 114 1124 132 663 27
1517 -69 2145 -242 60 -16 110 -28 112 -26 2 2 -32 27 -76 56 -107 70 -294
158 -472 222 l-148 52 0 424 0 423 78 0 c84 0 345 11 350 15 3 3 -278 280
-365 360 l-63 58 0 314 0 313 -177 -2 -178 -3 -5 -210 c-5 -230 -9 -237 -50
-90 -12 44 -27 89 -32 100 -13 25 -389 405 -401 405 -5 0 -100 -89 -210 -197z
m181 -1029 l3 -121 -105 -6 c-58 -4 -112 -4 -121 -1 -12 5 -15 27 -15 130 l0
125 118 -3 117 -3 3 -121z m322 1 l0 -125 -118 0 c-65 0 -121 2 -123 4 -2 2
-3 59 -1 125 l3 121 120 0 119 0 0 -125z m-322 -328 l3 -128 -123 3 -123 3 -3
113 c-2 63 -1 120 2 128 5 12 28 14 123 12 l118 -3 3 -128z m322 8 l0 -125
-120 0 -120 0 0 125 0 125 120 0 120 0 0 -125z"/>
<path d="M1410 3277 l-165 -162 -5 100 -5 100 -119 3 c-89 2 -121 -1 -128 -10
-4 -7 -8 -102 -8 -211 l0 -198 -130 -127 c-71 -70 -130 -130 -130 -135 0 -4
59 -7 130 -7 l130 0 0 -314 c0 -173 3 -321 6 -329 5 -13 17 -12 92 8 132 35
319 71 497 95 88 13 167 26 175 30 13 6 15 42 16 226 0 120 -2 255 -5 299 l-6
80 -224 2 c-123 1 -228 6 -233 11 -5 5 0 19 12 34 16 22 223 220 428 411 l54
50 -104 104 c-56 56 -105 103 -108 103 -3 0 -79 -74 -170 -163z m71 -772 c0
-30 0 -75 0 -100 0 -106 12 -95 -100 -95 l-98 0 -5 118 c-3 64 -3 120 -1 125
2 4 49 7 104 7 l99 0 1 -55z"/>
</g>
</svg>
